<?xml version="1.0" encoding="utf-8"?>
<!-- Generator: Adobe Illustrator 22.1.0, SVG Export Plug-In . SVG Version: 6.00 Build 0)  -->
<svg version="1.1" xmlns="http://www.w3.org/2000/svg" xmlns:xlink="http://www.w3.org/1999/xlink" x="0px" y="0px"
	 viewBox="0 0 1122 1122" style="enable-background:new 0 0 1122 1122;" xml:space="preserve">
<style type="text/css">
	.st0{fill:#BD242B;}
	.st1{fill:#FFFFFF;}
	.st2{fill:#CD4A45;}
	.st3{fill:#AC262B;}
</style>
<g id="BG">
</g>
<g id="Object">
	<g>
		<g>
			<path class="st0" d="M777,452c0,119.3-216,434-216,434S345,571.3,345,452c0-119.3,96.7-216,216-216S777,332.7,777,452z"/>
			
				<ellipse transform="matrix(0.7071 -0.7071 0.7071 0.7071 -148.5543 526.2808)" class="st1" cx="561" cy="442.5" rx="101.5" ry="101.5"/>
		</g>
		<path class="st2" d="M382,470.9c0-103.6,84-187.6,187.6-187.6c60.6,0,114.4,28.7,148.7,73.2c-32.4-56.2-93.1-94.1-162.7-94.1
			c-103.6,0-187.6,84-187.6,187.6c0,43.1,14.5,82.7,38.9,114.4C391.1,536.9,382,505,382,470.9z"/>
		<path class="st3" d="M510.1,803.4C539.5,852.7,561,886,561,886s216-314.7,216-434c0-6.3-0.3-12.4-0.8-18.6
			c-8.5,33.1-20.6,65.4-35.4,96.2C699.9,614.7,639.4,669.2,575,738.3C554.3,760.5,532.7,782.5,510.1,803.4z"/>
	</g>
</g>
</svg>
