{
  "accessors": [
    {
      "bufferView": 2,
      "componentType": 5126,
      "count": 3944,
      "max": [
        98.50630187988281,
        194.44219970703125,
        70.23280334472656
      ],
      "min": [
        -97.84709930419922,
        -197.93089294433594,
        1.944599986076355
      ],
      "type": "VEC3"
    },
    {
      "bufferView": 2,
      "byteOffset": 47328,
      "componentType": 5126,
      "count": 3944,
      "max": [
        1.0,
        0.9937537908554077,
        0.9937537908554077
      ],
      "min": [
        -1.0,
        -0.9937537908554077,
        -0.9937537908554077
      ],
      "type": "VEC3"
    },
    {
      "bufferView": 3,
      "componentType": 5126,
      "count": 3944,
      "max": [
        0.9916864633560181,
        0.999897837638855,
        0.9998977780342102,
        1.0
      ],
      "min": [
        -0.9916864037513733,
        -0.9998977780342102,
        -0.9988232254981995,
        -1.0
      ],
      "type": "VEC4"
    },
    {
      "bufferView": 1,
      "componentType": 5126,
      "count": 3944,
      "max": [
        0.9952999949455261,
        0.9961000084877014
      ],
      "min": [
        0.0038999998942017555,
        0.0038999998942017555
      ],
      "type": "VEC2"
    },
    {
      "bufferView": 0,
      "componentType": 5125,
      "count": 21600,
      "type": "SCALAR"
    },
    {
      "bufferView": 2,
      "byteOffset": 94656,
      "componentType": 5126,
      "count": 5706,
      "max": [
        108.38369750976563,
        316.093505859375,
        142.1851043701172
      ],
      "min": [
        -107.72450256347656,
        -256.9814147949219,
        23.007600784301758
      ],
      "type": "VEC3"
    },
    {
      "bufferView": 2,
      "byteOffset": 163128,
      "componentType": 5126,
      "count": 5706,
      "max": [
        0.9999872446060181,
        1.0,
        0.9999880790710449
      ],
      "min": [
        -0.9999872446060181,
        -1.0,
        -1.0
      ],
      "type": "VEC3"
    },
    {
      "bufferView": 3,
      "byteOffset": 63104,
      "componentType": 5126,
      "count": 5706,
      "max": [
        0.9999997615814209,
        0.9999956488609314,
        1.0,
        1.0
      ],
      "min": [
        -1.0,
        -1.0,
        -0.9997618198394775,
        1.0
      ],
      "type": "VEC4"
    },
    {
      "bufferView": 1,
      "byteOffset": 31552,
      "componentType": 5126,
      "count": 5706,
      "max": [
        0.9936000108718872,
        0.9961000084877014
      ],
      "min": [
        0.0038999998942017555,
        0.0038999998942017555
      ],
      "type": "VEC2"
    },
    {
      "bufferView": 0,
      "byteOffset": 86400,
      "componentType": 5125,
      "count": 27540,
      "type": "SCALAR"
    },
    {
      "bufferView": 2,
      "byteOffset": 231600,
      "componentType": 5126,
      "count": 871,
      "max": [
        96.94940185546875,
        310.96881103515625,
        138.75270080566406
      ],
      "min": [
        -98.28389739990234,
        -246.7541961669922,
        53.76810073852539
      ],
      "type": "VEC3"
    },
    {
      "bufferView": 2,
      "byteOffset": 242052,
      "componentType": 5126,
      "count": 871,
      "max": [
        0.9997655749320984,
        1.0,
        0.9544087648391724
      ],
      "min": [
        -0.9997634291648865,
        -0.9999992847442627,
        -0.7520951628684998
      ],
      "type": "VEC3"
    },
    {
      "bufferView": 1,
      "byteOffset": 77200,
      "componentType": 5126,
      "count": 871,
      "max": [
        0.9961000084877014,
        0.994700014591217
      ],
      "min": [
        0.0038999998942017555,
        0.0038999998942017555
      ],
      "type": "VEC2"
    },
    {
      "bufferView": 0,
      "byteOffset": 196560,
      "componentType": 5125,
      "count": 4152,
      "type": "SCALAR"
    }
  ],
  "asset": {
    "extras": {
      "author": "tedpermana (https://sketchfab.com/tedpermana)",
      "license": "CC-BY-4.0 (http://creativecommons.org/licenses/by/4.0/)",
      "source": "https://sketchfab.com/3d-models/low-poly-car-chrysler-saratoga-1960-3fa89e6bf78b49aab111af4195efb6fe",
      "title": "Low Poly Car - Chrysler Saratoga 1960"
    },
    "generator": "Sketchfab-12.29.0",
    "version": "2.0"
  },
  "bufferViews": [
    {
      "buffer": 0,
      "byteLength": 213168,
      "name": "floatBufferViews",
      "target": 34963
    },
    {
      "buffer": 0,
      "byteLength": 84168,
      "byteOffset": 213168,
      "byteStride": 8,
      "name": "floatBufferViews",
      "target": 34962
    },
    {
      "buffer": 0,
      "byteLength": 252504,
      "byteOffset": 297336,
      "byteStride": 12,
      "name": "floatBufferViews",
      "target": 34962
    },
    {
      "buffer": 0,
      "byteLength": 154400,
      "byteOffset": 549840,
      "byteStride": 16,
      "name": "floatBufferViews",
      "target": 34962
    }
  ],
  "buffers": [
    {
      "byteLength": 704240,
      "uri": "scene.bin"
    }
  ],
  "images": [
    {
      "uri": "textures/Body_baseColor.png"
    },
    {
      "uri": "textures/Body_metallicRoughness.png"
    },
    {
      "uri": "textures/Body_normal.png"
    },
    {
      "uri": "textures/Glass_baseColor.png"
    },
    {
      "uri": "textures/Glass_metallicRoughness.png"
    },
    {
      "uri": "textures/Tire_baseColor.png"
    },
    {
      "uri": "textures/Tire_metallicRoughness.png"
    },
    {
      "uri": "textures/Tire_normal.png"
    }
  ],
  "materials": [
    {
      "doubleSided": true,
      "name": "Body",
      "normalTexture": {
        "index": 2
      },
      "pbrMetallicRoughness": {
        "baseColorTexture": {
          "index": 0
        },
        "metallicRoughnessTexture": {
          "index": 1
        }
      }
    },
    {
      "alphaMode": "BLEND",
      "doubleSided": true,
      "name": "Glass",
      "pbrMetallicRoughness": {
        "baseColorTexture": {
          "index": 3
        },
        "metallicRoughnessTexture": {
          "index": 4
        }
      }
    },
    {
      "doubleSided": true,
      "name": "Tire",
      "normalTexture": {
        "index": 7
      },
      "pbrMetallicRoughness": {
        "baseColorTexture": {
          "index": 5
        },
        "metallicRoughnessTexture": {
          "index": 6
        }
      }
    }
  ],
  "meshes": [
    {
      "name": "Object_0",
      "primitives": [
        {
          "attributes": {
            "NORMAL": 1,
            "POSITION": 0,
            "TANGENT": 2,
            "TEXCOORD_0": 3
          },
          "indices": 4,
          "material": 2,
          "mode": 4
        }
      ]
    },
    {
      "name": "Object_1",
      "primitives": [
        {
          "attributes": {
            "NORMAL": 6,
            "POSITION": 5,
            "TANGENT": 7,
            "TEXCOORD_0": 8
          },
          "indices": 9,
          "material": 0,
          "mode": 4
        }
      ]
    },
    {
      "name": "Object_2",
      "primitives": [
        {
          "attributes": {
            "NORMAL": 11,
            "POSITION": 10,
            "TEXCOORD_0": 12
          },
          "indices": 13,
          "material": 1,
          "mode": 4
        }
      ]
    }
  ],
  "nodes": [
    {
      "children": [
        1
      ],
      "matrix": [
        1.0,
        0.0,
        0.0,
        0.0,
        0.0,
        2.220446049250313e-16,
        -1.0,
        0.0,
        0.0,
        1.0,
        2.220446049250313e-16,
        0.0,
        0.0,
        0.0,
        0.0,
        1.0
      ],
      "name": "Sketchfab_model"
    },
    {
      "children": [
        2,
        3,
        4
      ],
      "name": "FullBody.obj.cleaner.materialmerger.gles"
    },
    {
      "mesh": 0,
      "name": "Object_2"
    },
    {
      "mesh": 1,
      "name": "Object_3"
    },
    {
      "mesh": 2,
      "name": "Object_4"
    }
  ],
  "samplers": [
    {
      "magFilter": 9729,
      "minFilter": 9987,
      "wrapS": 10497,
      "wrapT": 10497
    }
  ],
  "scene": 0,
  "scenes": [
    {
      "name": "Sketchfab_Scene",
      "nodes": [
        0
      ]
    }
  ],
  "textures": [
    {
      "sampler": 0,
      "source": 0
    },
    {
      "sampler": 0,
      "source": 1
    },
    {
      "sampler": 0,
      "source": 2
    },
    {
      "sampler": 0,
      "source": 3
    },
    {
      "sampler": 0,
      "source": 4
    },
    {
      "sampler": 0,
      "source": 5
    },
    {
      "sampler": 0,
      "source": 6
    },
    {
      "sampler": 0,
      "source": 7
    }
  ]
}
